<?xml version="1.0" encoding="UTF-8" standalone="no"?>
<!DOCTYPE svg PUBLIC "-//W3C//DTD SVG 1.1//EN"
 "http://www.w3.org/Graphics/SVG/1.1/DTD/svg11.dtd">
<!-- Generated by graphviz version 14.1.1 (20251213.1925)
 -->
<!-- Title: InheritanceTree Pages: 1 -->
<svg width="404pt" height="357pt"
 viewBox="0.00 0.00 404.00 357.00" xmlns="http://www.w3.org/2000/svg" xmlns:xlink="http://www.w3.org/1999/xlink">
<g id="graph0" class="graph" transform="scale(1 1) rotate(0) translate(4 352.5)">
<title>InheritanceTree</title>
<polygon fill="white" stroke="none" points="-4,4 -4,-352.5 399.75,-352.5 399.75,4 -4,4"/>
<text xml:space="preserve" text-anchor="middle" x="197.88" y="-7.2" font-family="Times New Roman,serif" font-size="14.00">simple_rate_limiter &#45; Inheritance Hierarchy</text>
<!-- RATE_LIMIT_ENTRY -->
<g id="node1" class="node">
<title>RATE_LIMIT_ENTRY</title>
<path fill="none" stroke="black" d="M144.62,-60.5C144.62,-60.5 22.88,-60.5 22.88,-60.5 16.88,-60.5 10.88,-54.5 10.88,-48.5 10.88,-48.5 10.88,-36.5 10.88,-36.5 10.88,-30.5 16.88,-24.5 22.88,-24.5 22.88,-24.5 144.62,-24.5 144.62,-24.5 150.62,-24.5 156.62,-30.5 156.62,-36.5 156.62,-36.5 156.62,-48.5 156.62,-48.5 156.62,-54.5 150.62,-60.5 144.62,-60.5"/>
<text xml:space="preserve" text-anchor="middle" x="83.75" y="-37.45" font-family="Times New Roman,serif" font-size="14.00">RATE_LIMIT_ENTRY</text>
</g>
<!-- RATE_LIMIT_RESULT -->
<g id="node2" class="node">
<title>RATE_LIMIT_RESULT</title>
<path fill="none" stroke="black" d="M147.62,-132.5C147.62,-132.5 19.88,-132.5 19.88,-132.5 13.88,-132.5 7.88,-126.5 7.88,-120.5 7.88,-120.5 7.88,-108.5 7.88,-108.5 7.88,-102.5 13.88,-96.5 19.88,-96.5 19.88,-96.5 147.62,-96.5 147.62,-96.5 153.62,-96.5 159.62,-102.5 159.62,-108.5 159.62,-108.5 159.62,-120.5 159.62,-120.5 159.62,-126.5 153.62,-132.5 147.62,-132.5"/>
<text xml:space="preserve" text-anchor="middle" x="83.75" y="-109.45" font-family="Times New Roman,serif" font-size="14.00">RATE_LIMIT_RESULT</text>
</g>
<!-- SIMPLE_RATE_LIMITER -->
<g id="node3" class="node">
<title>SIMPLE_RATE_LIMITER</title>
<path fill="none" stroke="black" d="M155.5,-204.5C155.5,-204.5 12,-204.5 12,-204.5 6,-204.5 0,-198.5 0,-192.5 0,-192.5 0,-180.5 0,-180.5 0,-174.5 6,-168.5 12,-168.5 12,-168.5 155.5,-168.5 155.5,-168.5 161.5,-168.5 167.5,-174.5 167.5,-180.5 167.5,-180.5 167.5,-192.5 167.5,-192.5 167.5,-198.5 161.5,-204.5 155.5,-204.5"/>
<text xml:space="preserve" text-anchor="middle" x="83.75" y="-181.45" font-family="Times New Roman,serif" font-size="14.00">SIMPLE_RATE_LIMITER</text>
</g>
<!-- LIB_TESTS -->
<g id="node4" class="node">
<title>LIB_TESTS</title>
<path fill="none" stroke="black" d="M113.88,-276.5C113.88,-276.5 53.62,-276.5 53.62,-276.5 47.62,-276.5 41.62,-270.5 41.62,-264.5 41.62,-264.5 41.62,-252.5 41.62,-252.5 41.62,-246.5 47.62,-240.5 53.62,-240.5 53.62,-240.5 113.88,-240.5 113.88,-240.5 119.88,-240.5 125.88,-246.5 125.88,-252.5 125.88,-252.5 125.88,-264.5 125.88,-264.5 125.88,-270.5 119.88,-276.5 113.88,-276.5"/>
<text xml:space="preserve" text-anchor="middle" x="83.75" y="-253.45" font-family="Times New Roman,serif" font-size="14.00">LIB_TESTS</text>
</g>
<!-- TEST_SET_BASE -->
<g id="node5" class="node">
<title>TEST_SET_BASE</title>
<path fill="none" stroke="black" d="M383.75,-276.5C383.75,-276.5 287.5,-276.5 287.5,-276.5 281.5,-276.5 275.5,-270.5 275.5,-264.5 275.5,-264.5 275.5,-252.5 275.5,-252.5 275.5,-246.5 281.5,-240.5 287.5,-240.5 287.5,-240.5 383.75,-240.5 383.75,-240.5 389.75,-240.5 395.75,-246.5 395.75,-252.5 395.75,-252.5 395.75,-264.5 395.75,-264.5 395.75,-270.5 389.75,-276.5 383.75,-276.5"/>
<text xml:space="preserve" text-anchor="middle" x="335.62" y="-253.45" font-family="Times New Roman,serif" font-size="14.00">TEST_SET_BASE</text>
</g>
<!-- LIB_TESTS&#45;&gt;TEST_SET_BASE -->
<g id="edge1" class="edge">
<title>LIB_TESTS&#45;&gt;TEST_SET_BASE</title>
<path fill="none" stroke="black" d="M126.19,-258.5C126.19,-258.5 263.54,-258.5 263.54,-258.5"/>
<polygon fill="none" stroke="black" points="263.54,-262 273.54,-258.5 263.54,-255 263.54,-262"/>
</g>
<!-- TEST_APP -->
<g id="node6" class="node">
<title>TEST_APP</title>
<path fill="none" stroke="black" d="M111.62,-348.5C111.62,-348.5 55.88,-348.5 55.88,-348.5 49.88,-348.5 43.88,-342.5 43.88,-336.5 43.88,-336.5 43.88,-324.5 43.88,-324.5 43.88,-318.5 49.88,-312.5 55.88,-312.5 55.88,-312.5 111.62,-312.5 111.62,-312.5 117.62,-312.5 123.62,-318.5 123.62,-324.5 123.62,-324.5 123.62,-336.5 123.62,-336.5 123.62,-342.5 117.62,-348.5 111.62,-348.5"/>
<text xml:space="preserve" text-anchor="middle" x="83.75" y="-325.45" font-family="Times New Roman,serif" font-size="14.00">TEST_APP</text>
</g>
</g>
</svg>
