<?xml version="1.0" encoding="UTF-8" standalone="no"?>
<!DOCTYPE svg PUBLIC "-//W3C//DTD SVG 1.1//EN"
 "http://www.w3.org/Graphics/SVG/1.1/DTD/svg11.dtd">
<!-- Generated by graphviz version 14.1.1 (20251213.1925)
 -->
<!-- Title: ContractCoverage Pages: 1 -->
<svg width="816pt" height="902pt"
 viewBox="48.00 48.00 768.00 854.00" xmlns="http://www.w3.org/2000/svg" xmlns:xlink="http://www.w3.org/1999/xlink">
<g id="graph0" class="graph" transform="scale(0.774766 0.774766) rotate(0) translate(65.95 1098.2)">
<title>ContractCoverage</title>
<polygon fill="white" stroke="none" points="-4,4 -4,-1036.25 925.31,-1036.25 925.31,4 -4,4"/>
<text xml:space="preserve" text-anchor="middle" x="460.66" y="-1018.75" font-family="Times New Roman,serif" font-size="10.00">simple_rate_limiter &#45; Contract Coverage</text>
<g id="clust1" class="cluster">
<title>cluster_RATE_LIMIT_ENTRY</title>
<polygon fill="white" stroke="black" points="681.69,-712.5 681.69,-1013 921.31,-1013 921.31,-712.5 681.69,-712.5"/>
<text xml:space="preserve" text-anchor="middle" x="801.5" y="-995.7" font-family="Times New Roman,serif" font-size="14.00">RATE_LIMIT_ENTRY</text>
</g>
<g id="clust2" class="cluster">
<title>cluster_RATE_LIMIT_RESULT</title>
<polygon fill="white" stroke="black" points="155.5,-713 155.5,-888.5 333.5,-888.5 333.5,-713 155.5,-713"/>
<text xml:space="preserve" text-anchor="middle" x="244.5" y="-871.2" font-family="Times New Roman,serif" font-size="14.00">RATE_LIMIT_RESULT</text>
</g>
<g id="clust3" class="cluster">
<title>cluster_SIMPLE_RATE_LIMITER</title>
<polygon fill="white" stroke="black" points="62.5,-92.5 62.5,-633 632.5,-633 632.5,-92.5 62.5,-92.5"/>
<text xml:space="preserve" text-anchor="middle" x="347.5" y="-615.7" font-family="Times New Roman,serif" font-size="14.00">SIMPLE_RATE_LIMITER</text>
</g>
<g id="clust4" class="cluster">
<title>cluster_LIB_TESTS</title>
<polygon fill="white" stroke="black" points="0,-712.5 0,-773 91,-773 91,-712.5 0,-712.5"/>
<text xml:space="preserve" text-anchor="middle" x="45.5" y="-755.7" font-family="Times New Roman,serif" font-size="14.00">LIB_TESTS</text>
</g>
<g id="clust5" class="cluster">
<title>cluster_TEST_APP</title>
<polygon fill="white" stroke="black" points="713,0 713,-145.5 852,-145.5 852,0 713,0"/>
<text xml:space="preserve" text-anchor="middle" x="782.5" y="-128.2" font-family="Times New Roman,serif" font-size="14.00">TEST_APP</text>
</g>
<g id="clust6" class="cluster">
<title>cluster_legend</title>
<polygon fill="lightyellow" stroke="black" points="403.13,-712.62 403.13,-908.87 623.88,-908.87 623.88,-712.62 403.13,-712.62"/>
<text xml:space="preserve" text-anchor="middle" x="513.5" y="-895.37" font-family="Times New Roman,serif" font-size="10.00">Legend</text>
</g>
<!-- RATE_LIMIT_ENTRY_make -->
<g id="node1" class="node">
<title>RATE_LIMIT_ENTRY_make</title>
<polygon fill="palegreen" stroke="black" points="910.56,-748.5 856.56,-748.5 856.56,-712.5 910.56,-712.5 910.56,-748.5"/>
<text xml:space="preserve" text-anchor="middle" x="883.56" y="-726.62" font-family="Times New Roman,serif" font-size="10.00">make</text>
</g>
<!-- RATE_LIMIT_ENTRY_tokens -->
<g id="node2" class="node">
<title>RATE_LIMIT_ENTRY_tokens</title>
<polygon fill="lightgray" stroke="black" points="832.56,-748.5 778.56,-748.5 778.56,-712.5 832.56,-712.5 832.56,-748.5"/>
<text xml:space="preserve" text-anchor="middle" x="805.56" y="-726.62" font-family="Times New Roman,serif" font-size="10.00">tokens</text>
</g>
<!-- RATE_LIMIT_ENTRY_window_start -->
<g id="node3" class="node">
<title>RATE_LIMIT_ENTRY_window_start</title>
<polygon fill="lightgray" stroke="black" points="898.69,-808.5 826.44,-808.5 826.44,-772.5 898.69,-772.5 898.69,-808.5"/>
<text xml:space="preserve" text-anchor="middle" x="862.56" y="-786.63" font-family="Times New Roman,serif" font-size="10.00">window_start</text>
</g>
<!-- RATE_LIMIT_ENTRY_last_refill -->
<g id="node4" class="node">
<title>RATE_LIMIT_ENTRY_last_refill</title>
<polygon fill="lightgray" stroke="black" points="839.06,-988.5 784.06,-988.5 784.06,-952.5 839.06,-952.5 839.06,-988.5"/>
<text xml:space="preserve" text-anchor="middle" x="811.56" y="-966.63" font-family="Times New Roman,serif" font-size="10.00">last_refill</text>
</g>
<!-- RATE_LIMIT_ENTRY_request_count -->
<g id="node5" class="node">
<title>RATE_LIMIT_ENTRY_request_count</title>
<polygon fill="lightgray" stroke="black" points="755.44,-784.5 681.69,-784.5 681.69,-748.5 755.44,-748.5 755.44,-784.5"/>
<text xml:space="preserve" text-anchor="middle" x="718.56" y="-762.62" font-family="Times New Roman,serif" font-size="10.00">request_count</text>
</g>
<!-- RATE_LIMIT_ENTRY_set_tokens -->
<g id="node6" class="node">
<title>RATE_LIMIT_ENTRY_set_tokens</title>
<polygon fill="khaki" stroke="black" points="921.31,-964.5 861.81,-964.5 861.81,-928.5 921.31,-928.5 921.31,-964.5"/>
<text xml:space="preserve" text-anchor="middle" x="891.56" y="-942.62" font-family="Times New Roman,serif" font-size="10.00">set_tokens</text>
</g>
<!-- RATE_LIMIT_ENTRY_set_window_start -->
<g id="node7" class="node">
<title>RATE_LIMIT_ENTRY_set_window_start</title>
<polygon fill="palegreen" stroke="black" points="806.94,-844.5 718.19,-844.5 718.19,-808.5 806.94,-808.5 806.94,-844.5"/>
<text xml:space="preserve" text-anchor="middle" x="762.56" y="-822.63" font-family="Times New Roman,serif" font-size="10.00">set_window_start</text>
</g>
<!-- RATE_LIMIT_ENTRY_set_last_refill -->
<g id="node8" class="node">
<title>RATE_LIMIT_ENTRY_set_last_refill</title>
<polygon fill="palegreen" stroke="black" points="777.31,-928.5 705.81,-928.5 705.81,-892.5 777.31,-892.5 777.31,-928.5"/>
<text xml:space="preserve" text-anchor="middle" x="741.56" y="-906.62" font-family="Times New Roman,serif" font-size="10.00">set_last_refill</text>
</g>
<!-- RATE_LIMIT_ENTRY_set_request_count -->
<g id="node9" class="node">
<title>RATE_LIMIT_ENTRY_set_request_count</title>
<polygon fill="palegreen" stroke="black" points="892.69,-904.5 802.44,-904.5 802.44,-868.5 892.69,-868.5 892.69,-904.5"/>
<text xml:space="preserve" text-anchor="middle" x="847.56" y="-882.62" font-family="Times New Roman,serif" font-size="10.00">set_request_count</text>
</g>
<!-- RATE_LIMIT_RESULT_make -->
<g id="node10" class="node">
<title>RATE_LIMIT_RESULT_make</title>
<polygon fill="palegreen" stroke="black" points="209.5,-749 155.5,-749 155.5,-713 209.5,-713 209.5,-749"/>
<text xml:space="preserve" text-anchor="middle" x="182.5" y="-727.12" font-family="Times New Roman,serif" font-size="10.00">make</text>
</g>
<!-- RATE_LIMIT_RESULT_is_allowed -->
<g id="node11" class="node">
<title>RATE_LIMIT_RESULT_is_allowed</title>
<polygon fill="lightgray" stroke="black" points="256,-804 195,-804 195,-768 256,-768 256,-804"/>
<text xml:space="preserve" text-anchor="middle" x="225.5" y="-782.13" font-family="Times New Roman,serif" font-size="10.00">is_allowed</text>
</g>
<!-- RATE_LIMIT_RESULT_remaining -->
<g id="node12" class="node">
<title>RATE_LIMIT_RESULT_remaining</title>
<polygon fill="lightgray" stroke="black" points="322.12,-859 264.88,-859 264.88,-823 322.12,-823 322.12,-859"/>
<text xml:space="preserve" text-anchor="middle" x="293.5" y="-837.13" font-family="Times New Roman,serif" font-size="10.00">remaining</text>
</g>
<!-- RATE_LIMIT_RESULT_reset_time -->
<g id="node13" class="node">
<title>RATE_LIMIT_RESULT_reset_time</title>
<polygon fill="lightgray" stroke="black" points="248.5,-864 190.5,-864 190.5,-828 248.5,-828 248.5,-864"/>
<text xml:space="preserve" text-anchor="middle" x="219.5" y="-842.12" font-family="Times New Roman,serif" font-size="10.00">reset_time</text>
</g>
<!-- RATE_LIMIT_RESULT_retry_after -->
<g id="node14" class="node">
<title>RATE_LIMIT_RESULT_retry_after</title>
<polygon fill="lightgray" stroke="black" points="333.5,-779 275.5,-779 275.5,-743 333.5,-743 333.5,-779"/>
<text xml:space="preserve" text-anchor="middle" x="304.5" y="-757.12" font-family="Times New Roman,serif" font-size="10.00">retry_after</text>
</g>
<!-- SIMPLE_RATE_LIMITER_make -->
<g id="node15" class="node">
<title>SIMPLE_RATE_LIMITER_make</title>
<polygon fill="khaki" stroke="black" points="632.5,-548.5 578.5,-548.5 578.5,-512.5 632.5,-512.5 632.5,-548.5"/>
<text xml:space="preserve" text-anchor="middle" x="605.5" y="-526.62" font-family="Times New Roman,serif" font-size="10.00">make</text>
</g>
<!-- SIMPLE_RATE_LIMITER_make_with_limit -->
<g id="node16" class="node">
<title>SIMPLE_RATE_LIMITER_make_with_limit</title>
<polygon fill="palegreen" stroke="black" points="388.75,-542.5 302.25,-542.5 302.25,-506.5 388.75,-506.5 388.75,-542.5"/>
<text xml:space="preserve" text-anchor="middle" x="345.5" y="-520.62" font-family="Times New Roman,serif" font-size="10.00">make_with_limit</text>
</g>
<!-- SIMPLE_RATE_LIMITER_make_sliding_window -->
<g id="node17" class="node">
<title>SIMPLE_RATE_LIMITER_make_sliding_window</title>
<polygon fill="palegreen" stroke="black" points="508.75,-368.5 398.25,-368.5 398.25,-332.5 508.75,-332.5 508.75,-368.5"/>
<text xml:space="preserve" text-anchor="middle" x="453.5" y="-346.62" font-family="Times New Roman,serif" font-size="10.00">make_sliding_window</text>
</g>
<!-- SIMPLE_RATE_LIMITER_set_limit -->
<g id="node18" class="node">
<title>SIMPLE_RATE_LIMITER_set_limit</title>
<polygon fill="palegreen" stroke="black" points="620.5,-128.5 566.5,-128.5 566.5,-92.5 620.5,-92.5 620.5,-128.5"/>
<text xml:space="preserve" text-anchor="middle" x="593.5" y="-106.62" font-family="Times New Roman,serif" font-size="10.00">set_limit</text>
</g>
<!-- SIMPLE_RATE_LIMITER_set_burst_limit -->
<g id="node19" class="node">
<title>SIMPLE_RATE_LIMITER_set_burst_limit</title>
<polygon fill="palegreen" stroke="black" points="217.25,-422.5 139.75,-422.5 139.75,-386.5 217.25,-386.5 217.25,-422.5"/>
<text xml:space="preserve" text-anchor="middle" x="178.5" y="-400.62" font-family="Times New Roman,serif" font-size="10.00">set_burst_limit</text>
</g>
<!-- SIMPLE_RATE_LIMITER_add_whitelist -->
<g id="node20" class="node">
<title>SIMPLE_RATE_LIMITER_add_whitelist</title>
<polygon fill="palegreen" stroke="black" points="200.62,-482.5 128.38,-482.5 128.38,-446.5 200.62,-446.5 200.62,-482.5"/>
<text xml:space="preserve" text-anchor="middle" x="164.5" y="-460.62" font-family="Times New Roman,serif" font-size="10.00">add_whitelist</text>
</g>
<!-- SIMPLE_RATE_LIMITER_add_blacklist -->
<g id="node21" class="node">
<title>SIMPLE_RATE_LIMITER_add_blacklist</title>
<polygon fill="palegreen" stroke="black" points="493.25,-200.5 421.75,-200.5 421.75,-164.5 493.25,-164.5 493.25,-200.5"/>
<text xml:space="preserve" text-anchor="middle" x="457.5" y="-178.62" font-family="Times New Roman,serif" font-size="10.00">add_blacklist</text>
</g>
<!-- SIMPLE_RATE_LIMITER_remove_whitelist -->
<g id="node22" class="node">
<title>SIMPLE_RATE_LIMITER_remove_whitelist</title>
<polygon fill="palegreen" stroke="black" points="557.12,-548.5 469.88,-548.5 469.88,-512.5 557.12,-512.5 557.12,-548.5"/>
<text xml:space="preserve" text-anchor="middle" x="513.5" y="-526.62" font-family="Times New Roman,serif" font-size="10.00">remove_whitelist</text>
</g>
<!-- SIMPLE_RATE_LIMITER_remove_blacklist -->
<g id="node23" class="node">
<title>SIMPLE_RATE_LIMITER_remove_blacklist</title>
<polygon fill="palegreen" stroke="black" points="280.75,-542.5 194.25,-542.5 194.25,-506.5 280.75,-506.5 280.75,-542.5"/>
<text xml:space="preserve" text-anchor="middle" x="237.5" y="-520.62" font-family="Times New Roman,serif" font-size="10.00">remove_blacklist</text>
</g>
<!-- SIMPLE_RATE_LIMITER_check_limit -->
<g id="node24" class="node">
<title>SIMPLE_RATE_LIMITER_check_limit</title>
<polygon fill="palegreen" stroke="black" points="174.88,-596.5 110.13,-596.5 110.13,-560.5 174.88,-560.5 174.88,-596.5"/>
<text xml:space="preserve" text-anchor="middle" x="142.5" y="-574.62" font-family="Times New Roman,serif" font-size="10.00">check_limit</text>
</g>
<!-- SIMPLE_RATE_LIMITER_is_allowed -->
<g id="node25" class="node">
<title>SIMPLE_RATE_LIMITER_is_allowed</title>
<polygon fill="khaki" stroke="black" points="447,-602.5 386,-602.5 386,-566.5 447,-566.5 447,-602.5"/>
<text xml:space="preserve" text-anchor="middle" x="416.5" y="-580.63" font-family="Times New Roman,serif" font-size="10.00">is_allowed</text>
</g>
<!-- SIMPLE_RATE_LIMITER_consume -->
<g id="node26" class="node">
<title>SIMPLE_RATE_LIMITER_consume</title>
<polygon fill="khaki" stroke="black" points="464.5,-140.5 410.5,-140.5 410.5,-104.5 464.5,-104.5 464.5,-140.5"/>
<text xml:space="preserve" text-anchor="middle" x="437.5" y="-118.62" font-family="Times New Roman,serif" font-size="10.00">consume</text>
</g>
<!-- SIMPLE_RATE_LIMITER_remaining -->
<g id="node27" class="node">
<title>SIMPLE_RATE_LIMITER_remaining</title>
<polygon fill="khaki" stroke="black" points="617.12,-248.5 559.88,-248.5 559.88,-212.5 617.12,-212.5 617.12,-248.5"/>
<text xml:space="preserve" text-anchor="middle" x="588.5" y="-226.62" font-family="Times New Roman,serif" font-size="10.00">remaining</text>
</g>
<!-- SIMPLE_RATE_LIMITER_reset_time -->
<g id="node28" class="node">
<title>SIMPLE_RATE_LIMITER_reset_time</title>
<polygon fill="khaki" stroke="black" points="366.5,-602.5 308.5,-602.5 308.5,-566.5 366.5,-566.5 366.5,-602.5"/>
<text xml:space="preserve" text-anchor="middle" x="337.5" y="-580.63" font-family="Times New Roman,serif" font-size="10.00">reset_time</text>
</g>
<!-- SIMPLE_RATE_LIMITER_reset -->
<g id="node29" class="node">
<title>SIMPLE_RATE_LIMITER_reset</title>
<polygon fill="palegreen" stroke="black" points="284.5,-602.5 230.5,-602.5 230.5,-566.5 284.5,-566.5 284.5,-602.5"/>
<text xml:space="preserve" text-anchor="middle" x="257.5" y="-580.63" font-family="Times New Roman,serif" font-size="10.00">reset</text>
</g>
<!-- SIMPLE_RATE_LIMITER_reset_all -->
<g id="node30" class="node">
<title>SIMPLE_RATE_LIMITER_reset_all</title>
<polygon fill="khaki" stroke="black" points="584.5,-320.5 530.5,-320.5 530.5,-284.5 584.5,-284.5 584.5,-320.5"/>
<text xml:space="preserve" text-anchor="middle" x="557.5" y="-298.62" font-family="Times New Roman,serif" font-size="10.00">reset_all</text>
</g>
<!-- SIMPLE_RATE_LIMITER_rate_limit_headers -->
<g id="node31" class="node">
<title>SIMPLE_RATE_LIMITER_rate_limit_headers</title>
<polygon fill="palegreen" stroke="black" points="537.38,-260.5 445.62,-260.5 445.62,-224.5 537.38,-224.5 537.38,-260.5"/>
<text xml:space="preserve" text-anchor="middle" x="491.5" y="-238.62" font-family="Times New Roman,serif" font-size="10.00">rate_limit_headers</text>
</g>
<!-- SIMPLE_RATE_LIMITER_limit -->
<g id="node32" class="node">
<title>SIMPLE_RATE_LIMITER_limit</title>
<polygon fill="lightgray" stroke="black" points="116.5,-422.5 62.5,-422.5 62.5,-386.5 116.5,-386.5 116.5,-422.5"/>
<text xml:space="preserve" text-anchor="middle" x="89.5" y="-400.62" font-family="Times New Roman,serif" font-size="10.00">limit</text>
</g>
<!-- SIMPLE_RATE_LIMITER_window_seconds -->
<g id="node33" class="node">
<title>SIMPLE_RATE_LIMITER_window_seconds</title>
<polygon fill="lightgray" stroke="black" points="581.12,-428.5 493.87,-428.5 493.87,-392.5 581.12,-392.5 581.12,-428.5"/>
<text xml:space="preserve" text-anchor="middle" x="537.5" y="-406.62" font-family="Times New Roman,serif" font-size="10.00">window_seconds</text>
</g>
<!-- SIMPLE_RATE_LIMITER_burst_limit -->
<g id="node34" class="node">
<title>SIMPLE_RATE_LIMITER_burst_limit</title>
<polygon fill="lightgray" stroke="black" points="171,-362.5 110,-362.5 110,-326.5 171,-326.5 171,-362.5"/>
<text xml:space="preserve" text-anchor="middle" x="140.5" y="-340.62" font-family="Times New Roman,serif" font-size="10.00">burst_limit</text>
</g>
<!-- SIMPLE_RATE_LIMITER_algorithm -->
<g id="node35" class="node">
<title>SIMPLE_RATE_LIMITER_algorithm</title>
<polygon fill="lightgray" stroke="black" points="543.38,-128.5 487.62,-128.5 487.62,-92.5 543.38,-92.5 543.38,-128.5"/>
<text xml:space="preserve" text-anchor="middle" x="515.5" y="-106.62" font-family="Times New Roman,serif" font-size="10.00">algorithm</text>
</g>
<!-- SIMPLE_RATE_LIMITER_is_whitelisted -->
<g id="node36" class="node">
<title>SIMPLE_RATE_LIMITER_is_whitelisted</title>
<polygon fill="khaki" stroke="black" points="279.38,-188.5 205.63,-188.5 205.63,-152.5 279.38,-152.5 279.38,-188.5"/>
<text xml:space="preserve" text-anchor="middle" x="242.5" y="-166.62" font-family="Times New Roman,serif" font-size="10.00">is_whitelisted</text>
</g>
<!-- SIMPLE_RATE_LIMITER_is_blacklisted -->
<g id="node37" class="node">
<title>SIMPLE_RATE_LIMITER_is_blacklisted</title>
<polygon fill="khaki" stroke="black" points="183,-188.5 110,-188.5 110,-152.5 183,-152.5 183,-188.5"/>
<text xml:space="preserve" text-anchor="middle" x="146.5" y="-166.62" font-family="Times New Roman,serif" font-size="10.00">is_blacklisted</text>
</g>
<!-- SIMPLE_RATE_LIMITER_Default_limit -->
<g id="node38" class="node">
<title>SIMPLE_RATE_LIMITER_Default_limit</title>
<polygon fill="lightgray" stroke="black" points="385.25,-188.5 313.75,-188.5 313.75,-152.5 385.25,-152.5 385.25,-188.5"/>
<text xml:space="preserve" text-anchor="middle" x="349.5" y="-166.62" font-family="Times New Roman,serif" font-size="10.00">Default_limit</text>
</g>
<!-- SIMPLE_RATE_LIMITER_Default_window -->
<g id="node39" class="node">
<title>SIMPLE_RATE_LIMITER_Default_window</title>
<polygon fill="lightgray" stroke="black" points="399.37,-248.5 313.62,-248.5 313.62,-212.5 399.37,-212.5 399.37,-248.5"/>
<text xml:space="preserve" text-anchor="middle" x="356.5" y="-226.62" font-family="Times New Roman,serif" font-size="10.00">Default_window</text>
</g>
<!-- SIMPLE_RATE_LIMITER_Algorithm_token_bucket -->
<g id="node40" class="node">
<title>SIMPLE_RATE_LIMITER_Algorithm_token_bucket</title>
<polygon fill="lightgray" stroke="black" points="470.62,-428.5 350.38,-428.5 350.38,-392.5 470.62,-392.5 470.62,-428.5"/>
<text xml:space="preserve" text-anchor="middle" x="410.5" y="-406.62" font-family="Times New Roman,serif" font-size="10.00">Algorithm_token_bucket</text>
</g>
<!-- SIMPLE_RATE_LIMITER_Algorithm_sliding_window -->
<g id="node41" class="node">
<title>SIMPLE_RATE_LIMITER_Algorithm_sliding_window</title>
<polygon fill="lightgray" stroke="black" points="373.25,-368.5 241.75,-368.5 241.75,-332.5 373.25,-332.5 373.25,-368.5"/>
<text xml:space="preserve" text-anchor="middle" x="307.5" y="-346.62" font-family="Times New Roman,serif" font-size="10.00">Algorithm_sliding_window</text>
</g>
<!-- SIMPLE_RATE_LIMITER_entries -->
<g id="node42" class="node">
<title>SIMPLE_RATE_LIMITER_entries</title>
<polygon fill="lightgray" stroke="black" points="368.5,-128.5 314.5,-128.5 314.5,-92.5 368.5,-92.5 368.5,-128.5"/>
<text xml:space="preserve" text-anchor="middle" x="341.5" y="-106.62" font-family="Times New Roman,serif" font-size="10.00">entries</text>
</g>
<!-- SIMPLE_RATE_LIMITER_whitelist -->
<g id="node43" class="node">
<title>SIMPLE_RATE_LIMITER_whitelist</title>
<polygon fill="lightgray" stroke="black" points="584.5,-608.5 530.5,-608.5 530.5,-572.5 584.5,-572.5 584.5,-608.5"/>
<text xml:space="preserve" text-anchor="middle" x="557.5" y="-586.62" font-family="Times New Roman,serif" font-size="10.00">whitelist</text>
</g>
<!-- SIMPLE_RATE_LIMITER_blacklist -->
<g id="node44" class="node">
<title>SIMPLE_RATE_LIMITER_blacklist</title>
<polygon fill="lightgray" stroke="black" points="146.5,-302.5 92.5,-302.5 92.5,-266.5 146.5,-266.5 146.5,-302.5"/>
<text xml:space="preserve" text-anchor="middle" x="119.5" y="-280.62" font-family="Times New Roman,serif" font-size="10.00">blacklist</text>
</g>
<!-- SIMPLE_RATE_LIMITER_get_or_create_entry -->
<g id="node45" class="node">
<title>SIMPLE_RATE_LIMITER_get_or_create_entry</title>
<polygon fill="palegreen" stroke="black" points="291.38,-308.5 193.63,-308.5 193.63,-272.5 291.38,-272.5 291.38,-308.5"/>
<text xml:space="preserve" text-anchor="middle" x="242.5" y="-286.62" font-family="Times New Roman,serif" font-size="10.00">get_or_create_entry</text>
</g>
<!-- SIMPLE_RATE_LIMITER_check_token_bucket -->
<g id="node46" class="node">
<title>SIMPLE_RATE_LIMITER_check_token_bucket</title>
<polygon fill="khaki" stroke="black" points="325.25,-482.5 223.75,-482.5 223.75,-446.5 325.25,-446.5 325.25,-482.5"/>
<text xml:space="preserve" text-anchor="middle" x="274.5" y="-460.62" font-family="Times New Roman,serif" font-size="10.00">check_token_bucket</text>
</g>
<!-- SIMPLE_RATE_LIMITER_check_sliding_window -->
<g id="node47" class="node">
<title>SIMPLE_RATE_LIMITER_check_sliding_window</title>
<polygon fill="khaki" stroke="black" points="426.87,-308.5 314.12,-308.5 314.12,-272.5 426.87,-272.5 426.87,-308.5"/>
<text xml:space="preserve" text-anchor="middle" x="370.5" y="-286.62" font-family="Times New Roman,serif" font-size="10.00">check_sliding_window</text>
</g>
<!-- SIMPLE_RATE_LIMITER_refill_tokens -->
<g id="node48" class="node">
<title>SIMPLE_RATE_LIMITER_refill_tokens</title>
<polygon fill="khaki" stroke="black" points="591.38,-488.5 523.62,-488.5 523.62,-452.5 591.38,-452.5 591.38,-488.5"/>
<text xml:space="preserve" text-anchor="middle" x="557.5" y="-466.62" font-family="Times New Roman,serif" font-size="10.00">refill_tokens</text>
</g>
<!-- SIMPLE_RATE_LIMITER_tokens_per_second -->
<g id="node49" class="node">
<title>SIMPLE_RATE_LIMITER_tokens_per_second</title>
<polygon fill="khaki" stroke="black" points="504.87,-488.5 410.12,-488.5 410.12,-452.5 504.87,-452.5 504.87,-488.5"/>
<text xml:space="preserve" text-anchor="middle" x="457.5" y="-466.62" font-family="Times New Roman,serif" font-size="10.00">tokens_per_second</text>
</g>
<!-- SIMPLE_RATE_LIMITER_seconds_between -->
<g id="node50" class="node">
<title>SIMPLE_RATE_LIMITER_seconds_between</title>
<polygon fill="khaki" stroke="black" points="258.5,-248.5 170.5,-248.5 170.5,-212.5 258.5,-212.5 258.5,-248.5"/>
<text xml:space="preserve" text-anchor="middle" x="214.5" y="-226.62" font-family="Times New Roman,serif" font-size="10.00">seconds_between</text>
</g>
<!-- SIMPLE_RATE_LIMITER_list_has_string -->
<g id="node51" class="node">
<title>SIMPLE_RATE_LIMITER_list_has_string</title>
<polygon fill="khaki" stroke="black" points="594.5,-188.5 518.5,-188.5 518.5,-152.5 594.5,-152.5 594.5,-188.5"/>
<text xml:space="preserve" text-anchor="middle" x="556.5" y="-166.62" font-family="Times New Roman,serif" font-size="10.00">list_has_string</text>
</g>
<!-- LIB_TESTS_test_make_default -->
<g id="node52" class="node">
<title>LIB_TESTS_test_make_default</title>
<polygon fill="lightgray" stroke="black" points="91,-748.5 0,-748.5 0,-712.5 91,-712.5 91,-748.5"/>
<text xml:space="preserve" text-anchor="middle" x="45.5" y="-726.62" font-family="Times New Roman,serif" font-size="10.00">test_make_default</text>
</g>
<!-- TEST_APP_make -->
<g id="node53" class="node">
<title>TEST_APP_make</title>
<polygon fill="lightcoral" stroke="black" points="852,-36 798,-36 798,0 852,0 852,-36"/>
<text xml:space="preserve" text-anchor="middle" x="825" y="-14.12" font-family="Times New Roman,serif" font-size="10.00">make</text>
</g>
<!-- TEST_APP_passed -->
<g id="node54" class="node">
<title>TEST_APP_passed</title>
<polygon fill="lightgray" stroke="black" points="777,-61 723,-61 723,-25 777,-25 777,-61"/>
<text xml:space="preserve" text-anchor="middle" x="750" y="-39.12" font-family="Times New Roman,serif" font-size="10.00">passed</text>
</g>
<!-- TEST_APP_failed -->
<g id="node55" class="node">
<title>TEST_APP_failed</title>
<polygon fill="lightgray" stroke="black" points="842,-116 788,-116 788,-80 842,-80 842,-116"/>
<text xml:space="preserve" text-anchor="middle" x="815" y="-94.12" font-family="Times New Roman,serif" font-size="10.00">failed</text>
</g>
<!-- TEST_APP_run_test -->
<g id="node56" class="node">
<title>TEST_APP_run_test</title>
<polygon fill="lightcoral" stroke="black" points="767,-121 713,-121 713,-85 767,-85 767,-121"/>
<text xml:space="preserve" text-anchor="middle" x="740" y="-99.12" font-family="Times New Roman,serif" font-size="10.00">run_test</text>
</g>
<!-- legend_full -->
<g id="node57" class="node">
<title>legend_full</title>
<polygon fill="palegreen" stroke="black" points="613.38,-817.62 499.12,-817.62 499.12,-776.62 613.38,-776.62 613.38,-817.62"/>
<text xml:space="preserve" text-anchor="middle" x="556.25" y="-800.32" font-family="Times New Roman,serif" font-size="14.00">Full Contract</text>
<text xml:space="preserve" text-anchor="middle" x="556.25" y="-783.82" font-family="Times New Roman,serif" font-size="14.00">(require + ensure)</text>
</g>
<!-- legend_partial -->
<g id="node58" class="node">
<title>legend_partial</title>
<polygon fill="khaki" stroke="black" points="623.88,-753.62 506.62,-753.62 506.62,-712.62 623.88,-712.62 623.88,-753.62"/>
<text xml:space="preserve" text-anchor="middle" x="565.25" y="-736.32" font-family="Times New Roman,serif" font-size="14.00">Partial Contract</text>
<text xml:space="preserve" text-anchor="middle" x="565.25" y="-719.82" font-family="Times New Roman,serif" font-size="14.00">(require or ensure)</text>
</g>
<!-- legend_none -->
<g id="node59" class="node">
<title>legend_none</title>
<polygon fill="lightcoral" stroke="black" points="589.62,-876.12 506.88,-876.12 506.88,-840.12 589.62,-840.12 589.62,-876.12"/>
<text xml:space="preserve" text-anchor="middle" x="548.25" y="-853.07" font-family="Times New Roman,serif" font-size="14.00">No Contract</text>
</g>
<!-- legend_attr -->
<g id="node60" class="node">
<title>legend_attr</title>
<polygon fill="lightgray" stroke="black" points="483.63,-889.62 418.88,-889.62 418.88,-848.62 483.63,-848.62 483.63,-889.62"/>
<text xml:space="preserve" text-anchor="middle" x="451.25" y="-872.32" font-family="Times New Roman,serif" font-size="14.00">Attribute</text>
<text xml:space="preserve" text-anchor="middle" x="451.25" y="-855.82" font-family="Times New Roman,serif" font-size="14.00">(n/a)</text>
</g>
<!-- legend_stats -->
<g id="node61" class="node">
<title>legend_stats</title>
<polygon fill="white" stroke="black" points="469.38,-827.62 403.12,-827.62 403.12,-720.62 475.38,-720.62 475.38,-821.62 469.38,-827.62"/>
<polyline fill="none" stroke="black" points="469.38,-827.62 469.38,-821.62"/>
<polyline fill="none" stroke="black" points="475.38,-821.62 469.38,-821.62"/>
<text xml:space="preserve" text-anchor="middle" x="439.25" y="-810.32" font-family="Times New Roman,serif" font-size="14.00">Statistics</text>
<text xml:space="preserve" text-anchor="middle" x="439.25" y="-793.82" font-family="Times New Roman,serif" font-size="14.00">Full: 17</text>
<text xml:space="preserve" text-anchor="middle" x="439.25" y="-777.32" font-family="Times New Roman,serif" font-size="14.00">Partial: 15</text>
<text xml:space="preserve" text-anchor="middle" x="439.25" y="-760.82" font-family="Times New Roman,serif" font-size="14.00">None: 2</text>
<text xml:space="preserve" text-anchor="middle" x="439.25" y="-744.32" font-family="Times New Roman,serif" font-size="14.00">Attr: 22</text>
<text xml:space="preserve" text-anchor="middle" x="439.25" y="-727.82" font-family="Times New Roman,serif" font-size="14.00">Total: 56</text>
</g>
</g>
</svg>
