<?xml version="1.0" encoding="UTF-8" standalone="no"?>
<!DOCTYPE svg PUBLIC "-//W3C//DTD SVG 1.1//EN"
 "http://www.w3.org/Graphics/SVG/1.1/DTD/svg11.dtd">
<!-- Generated by graphviz version 14.1.1 (20251213.1925)
 -->
<!-- Title: Dependencies Pages: 1 -->
<svg width="382pt" height="285pt"
 viewBox="0.00 0.00 382.00 285.00" xmlns="http://www.w3.org/2000/svg" xmlns:xlink="http://www.w3.org/1999/xlink">
<g id="graph0" class="graph" transform="scale(1 1) rotate(0) translate(4 280.5)">
<title>Dependencies</title>
<polygon fill="white" stroke="none" points="-4,4 -4,-280.5 378,-280.5 378,4 -4,4"/>
<text xml:space="preserve" text-anchor="middle" x="187" y="-7.2" font-family="Times New Roman,serif" font-size="14.00">simple_rate_limiter &#45; Dependencies</text>
<!-- simple_rate_limiter -->
<g id="node1" class="node">
<title>simple_rate_limiter</title>
<polygon fill="lightblue" stroke="black" points="123.25,-168.5 0,-168.5 0,-132.5 123.25,-132.5 123.25,-168.5"/>
<text xml:space="preserve" text-anchor="middle" x="61.62" y="-145.45" font-family="Times New Roman,serif" font-size="14.00">simple_rate_limiter</text>
</g>
<!-- simple_datetime -->
<g id="node2" class="node">
<title>simple_datetime</title>
<polygon fill="lightblue" stroke="black" points="374,-276.5 267.25,-276.5 267.25,-240.5 374,-240.5 374,-276.5"/>
<text xml:space="preserve" text-anchor="middle" x="320.62" y="-253.45" font-family="Times New Roman,serif" font-size="14.00">simple_datetime</text>
</g>
<!-- simple_rate_limiter&#45;&gt;simple_datetime -->
<g id="edge1" class="edge">
<title>simple_rate_limiter&#45;&gt;simple_datetime</title>
<path fill="none" stroke="black" stroke-dasharray="5,2" d="M62,-168.82C62,-199.63 62,-258.5 62,-258.5 62,-258.5 255.52,-258.5 255.52,-258.5"/>
<polygon fill="black" stroke="black" points="255.52,-262 265.52,-258.5 255.52,-255 255.52,-262"/>
</g>
<!-- simple_testing -->
<g id="node3" class="node">
<title>simple_testing</title>
<polygon fill="lightblue" stroke="black" points="368.38,-204.5 272.88,-204.5 272.88,-168.5 368.38,-168.5 368.38,-204.5"/>
<text xml:space="preserve" text-anchor="middle" x="320.62" y="-181.45" font-family="Times New Roman,serif" font-size="14.00">simple_testing</text>
</g>
<!-- simple_rate_limiter&#45;&gt;simple_testing -->
<g id="edge2" class="edge">
<title>simple_rate_limiter&#45;&gt;simple_testing</title>
<path fill="none" stroke="black" stroke-dasharray="5,2" d="M123.58,-156.5C189.08,-156.5 283,-156.5 283,-156.5 283,-156.5 283,-157.65 283,-157.65"/>
<polygon fill="black" stroke="black" points="279.5,-156.5 283,-166.5 286.5,-156.5 279.5,-156.5"/>
</g>
<!-- base -->
<g id="node4" class="node">
<title>base</title>
<polygon fill="lightgray" stroke="black" points="347.62,-132.5 293.62,-132.5 293.62,-96.5 347.62,-96.5 347.62,-132.5"/>
<text xml:space="preserve" text-anchor="middle" x="320.62" y="-109.45" font-family="Times New Roman,serif" font-size="14.00">base</text>
</g>
<!-- simple_rate_limiter&#45;&gt;base -->
<g id="edge3" class="edge">
<title>simple_rate_limiter&#45;&gt;base</title>
<path fill="none" stroke="black" stroke-dasharray="5,2" d="M123.42,-144.5C200.14,-144.5 321,-144.5 321,-144.5 321,-144.5 321,-143.35 321,-143.35"/>
<polygon fill="black" stroke="black" points="324.5,-144.5 321,-134.5 317.5,-144.5 324.5,-144.5"/>
</g>
<!-- testing -->
<g id="node5" class="node">
<title>testing</title>
<polygon fill="lightgray" stroke="black" points="347.62,-60.5 293.62,-60.5 293.62,-24.5 347.62,-24.5 347.62,-60.5"/>
<text xml:space="preserve" text-anchor="middle" x="320.62" y="-37.45" font-family="Times New Roman,serif" font-size="14.00">testing</text>
</g>
<!-- simple_rate_limiter&#45;&gt;testing -->
<g id="edge4" class="edge">
<title>simple_rate_limiter&#45;&gt;testing</title>
<path fill="none" stroke="black" stroke-dasharray="5,2" d="M62,-132.18C62,-101.37 62,-42.5 62,-42.5 62,-42.5 281.92,-42.5 281.92,-42.5"/>
<polygon fill="black" stroke="black" points="281.92,-46 291.92,-42.5 281.92,-39 281.92,-46"/>
</g>
</g>
</svg>
